<svg xmlns="http://www.w3.org/2000/svg" xmlns:xlink="http://www.w3.org/1999/xlink" width="158" height="158" viewBox="0 0 158 158">
  <defs>
    <filter id="Rectangle_435" x="0" y="0" width="158" height="158" filterUnits="userSpaceOnUse">
      <feOffset dy="10" input="SourceAlpha"/>
      <feGaussianBlur stdDeviation="15" result="blur"/>
      <feFlood flood-color="#ff3209" flood-opacity="0.149"/>
      <feComposite operator="in" in2="blur"/>
      <feComposite in="SourceGraphic"/>
    </filter>
    <filter id="Path_1" x="59.982" y="46.001" width="39.628" height="53.925" filterUnits="userSpaceOnUse">
      <feOffset dy="4" input="SourceAlpha"/>
      <feGaussianBlur stdDeviation="4" result="blur-2"/>
      <feFlood flood-color="#455a64" flood-opacity="0.102"/>
      <feComposite operator="in" in2="blur-2"/>
      <feComposite in="SourceGraphic"/>
    </filter>
  </defs>
  <g id="FB" transform="translate(45.333 35)">
    <g transform="matrix(1, 0, 0, 1, -45.33, -35)" filter="url(#Rectangle_435)">
      <rect id="Rectangle_435-2" data-name="Rectangle 435" width="68" height="68" rx="10" transform="translate(45 35)" fill="#fff"/>
    </g>
    <g id="Symbol_11_1" data-name="Symbol 11 – 1" transform="translate(19 19)">
      <rect id="Rectangle_392" data-name="Rectangle 392" width="30" height="30" transform="translate(-0.333)" fill="none"/>
      <g transform="matrix(1, 0, 0, 1, -64.33, -54)" filter="url(#Path_1)">
        <path id="Path_1-2" data-name="Path 1" d="M90.141,29.925V16.293H94.8l.665-5.32h-5.32V7.648c0-1.5.5-2.66,2.66-2.66h2.826V.166C94.963.166,93.3,0,91.471,0c-3.99,0-6.816,2.494-6.816,6.983v3.99H80v5.32h4.655V29.925Z" transform="translate(-8.02 54)" fill="#3b5998" fill-rule="evenodd"/>
      </g>
    </g>
  </g>
</svg>
