<svg xmlns="http://www.w3.org/2000/svg" xmlns:xlink="http://www.w3.org/1999/xlink" width="128" height="128" viewBox="0 0 128 128">
  <defs>
    <filter id="Rectangle_437" x="0" y="0" width="128" height="128" filterUnits="userSpaceOnUse">
      <feOffset dy="10" input="SourceAlpha"/>
      <feGaussianBlur stdDeviation="10" result="blur"/>
      <feFlood flood-color="#ff3209" flood-opacity="0.149"/>
      <feComposite operator="in" in2="blur"/>
      <feComposite in="SourceGraphic"/>
    </filter>
  </defs>
  <g id="Group_389" data-name="Group 389" transform="translate(-1098 -204)">
    <g transform="matrix(1, 0, 0, 1, 1098, 204)" filter="url(#Rectangle_437)">
      <rect id="Rectangle_437-2" data-name="Rectangle 437" width="68" height="68" rx="10" transform="translate(30 20)" fill="#fff"/>
    </g>
    <g id="search_2_" data-name="search (2)" transform="translate(1147 243)">
      <path id="Path_1639" data-name="Path 1639" d="M6.759,148.463,5.7,152.426l-3.88.082a15.277,15.277,0,0,1-.112-14.24h0l3.455.633,1.513,3.434a9.1,9.1,0,0,0,.086,6.128Z" transform="translate(0 -130.285)" fill="#fbbb00"/>
      <path id="Path_1640" data-name="Path 1640" d="M276.276,208.176a15.244,15.244,0,0,1-5.436,14.741h0l-4.351-.222-.616-3.844a9.089,9.089,0,0,0,3.911-4.641h-8.155v-6.033h14.648Z" transform="translate(-246.543 -196.275)" fill="#518ef8"/>
      <path id="Path_1641" data-name="Path 1641" d="M53.488,318.119h0a15.255,15.255,0,0,1-22.98-4.665l4.942-4.045a9.07,9.07,0,0,0,13.07,4.644Z" transform="translate(-28.692 -291.477)" fill="#28b446"/>
      <path id="Path_1642" data-name="Path 1642" d="M51.9,3.511l-4.94,4.045A9.069,9.069,0,0,0,33.593,12.3L28.625,8.237h0A15.253,15.253,0,0,1,51.9,3.511Z" transform="translate(-26.919)" fill="#f14336"/>
    </g>
  </g>
</svg>
