<svg xmlns="http://www.w3.org/2000/svg" width="20" height="20" viewBox="0 0 20 20">
  <path id="Icon_awesome-pinterest-square" data-name="Icon awesome-pinterest-square" d="M20,4.393V20.108a2.143,2.143,0,0,1-2.143,2.143H6.893A11.439,11.439,0,0,0,8.116,19.6C8.25,19.09,8.8,17,8.8,17a2.931,2.931,0,0,0,2.513,1.259c3.308,0,5.688-3.04,5.688-6.817a6.433,6.433,0,0,0-6.759-6.331C5.509,5.107,3,8.281,3,11.741c0,1.607.857,3.607,2.223,4.246.21.1.317.054.366-.147.036-.152.223-.9.3-1.241a.323.323,0,0,0-.076-.313A4.273,4.273,0,0,1,5,11.786,4.745,4.745,0,0,1,9.951,7.027a4.329,4.329,0,0,1,4.58,4.46c0,2.964-1.5,5.018-3.446,5.018A1.594,1.594,0,0,1,9.46,14.523a22.154,22.154,0,0,0,.906-3.652C10.366,8.5,7,8.831,7,11.987a4.006,4.006,0,0,0,.326,1.63c-1.4,5.929-1.612,6-1.321,8.6l.1.036H2.143A2.143,2.143,0,0,1,0,20.108V4.393A2.143,2.143,0,0,1,2.143,2.25H17.857A2.143,2.143,0,0,1,20,4.393Z" transform="translate(0 -2.25)" fill="#fff"/>
</svg>
