<svg xmlns="http://www.w3.org/2000/svg" width="25" height="20" viewBox="0 0 25 20">
  <path id="Icon_awesome-twitter" data-name="Icon awesome-twitter" d="M22.43,8.365c.016.219.016.438.016.656A14.364,14.364,0,0,1,7.868,23.381,14.64,14.64,0,0,1,0,21.116a10.759,10.759,0,0,0,1.237.062A10.361,10.361,0,0,0,7.6,19.022a5.124,5.124,0,0,1-4.791-3.5,6.557,6.557,0,0,0,.968.078,5.5,5.5,0,0,0,1.348-.172,5.067,5.067,0,0,1-4.109-4.953v-.062a5.219,5.219,0,0,0,2.316.641,5.024,5.024,0,0,1-2.284-4.2,4.952,4.952,0,0,1,.7-2.547A14.638,14.638,0,0,0,12.31,9.584a5.616,5.616,0,0,1-.127-1.156,5.084,5.084,0,0,1,5.124-5.047A5.148,5.148,0,0,1,21.05,4.975,10.182,10.182,0,0,0,24.3,3.756a5.048,5.048,0,0,1-2.253,2.781A10.4,10.4,0,0,0,25,5.756,10.926,10.926,0,0,1,22.43,8.365Z" transform="translate(0 -3.381)" fill="#fff"/>
</svg>
